<?xml version="1.0" standalone="no"?>
<!DOCTYPE svg PUBLIC "-//W3C//DTD SVG 20010904//EN"
 "http://www.w3.org/TR/2001/REC-SVG-20010904/DTD/svg10.dtd">
<svg version="1.0" xmlns="http://www.w3.org/2000/svg"
 width="850.000000pt" height="460.000000pt" viewBox="0 0 850.000000 460.000000"
 preserveAspectRatio="xMidYMid meet">

<g transform="translate(0.000000,460.000000) scale(0.100000,-0.100000)"
fill="#000000" stroke="none">
<path d="M5446 4234 c-20 -20 -20 -53 0 -82 10 -15 13 -33 9 -51 -5 -23 -10
-27 -31 -23 -13 2 -26 8 -29 11 -2 4 -36 4 -75 0 -285 -31 -548 -33 -854 -7
-147 12 -161 19 -132 60 22 31 20 45 -8 73 -27 27 -60 24 -77 -6 -6 -12 -10
-204 -9 -522 l0 -504 -35 -19 c-36 -19 -49 -42 -17 -29 69 26 156 37 285 33
125 -3 137 -2 137 14 0 9 -9 22 -20 28 -31 16 -24 46 15 70 29 18 33 25 24 36
-12 14 -9 17 36 28 11 2 -8 2 -43 -1 l-62 -6 2 317 3 316 305 4 c168 3 314 6
325 8 20 3 20 -3 23 -309 2 -292 -1 -338 -24 -302 -12 21 -89 49 -133 49 -37
0 -42 2 -36 18 4 9 9 32 12 51 7 37 -13 61 -51 61 -14 0 -28 14 -43 40 -12 22
-17 40 -11 40 6 0 8 13 6 30 -3 21 0 30 9 30 8 0 13 -8 12 -17 -1 -10 0 -21 1
-25 1 -5 4 -11 5 -15 12 -40 32 -73 42 -73 7 0 13 2 13 5 0 11 -24 55 -31 55
-4 0 -5 9 -2 20 7 26 -22 70 -47 70 -10 0 -22 5 -26 11 -4 8 3 9 26 4 46 -10
35 13 -14 30 -33 12 -43 11 -72 -3 -28 -14 -34 -23 -34 -50 0 -40 -20 -88 -49
-121 -16 -19 -18 -26 -9 -33 10 -6 10 -8 1 -8 -20 0 -15 -71 7 -107 16 -27 17
-33 5 -33 -17 0 -20 -21 -4 -37 7 -7 6 -14 -4 -24 -11 -12 0 -14 77 -16 103
-3 155 8 191 41 18 17 22 25 13 34 -26 26 74 6 118 -23 26 -17 23 -51 -5 -40
-24 10 -125 14 -110 4 8 -4 29 -11 49 -14 48 -8 155 -67 155 -85 0 -20 -48
-42 -104 -48 -65 -7 -75 -17 -44 -48 29 -29 26 -48 -10 -52 -31 -4 -51 25 -41
63 5 20 3 25 -14 25 -24 0 -33 -21 -25 -60 3 -19 1 -30 -5 -30 -6 0 -14 16
-18 35 -7 42 -12 45 -41 34 -14 -5 -26 -23 -34 -48 -7 -23 -16 -41 -22 -41 -5
0 -6 8 -2 18 3 9 9 29 12 45 5 23 2 27 -15 27 -14 0 -20 -5 -16 -14 10 -26
-15 -57 -43 -54 -36 4 -42 28 -7 25 15 -1 29 4 31 11 3 7 -5 12 -21 12 -18 0
-26 5 -26 18 0 9 -9 -2 -20 -25 -15 -34 -24 -43 -45 -43 -17 0 -26 6 -27 18 0
9 -2 24 -2 32 -2 21 -59 16 -215 -16 -207 -43 -272 -68 -352 -139 -44 -39 -58
-71 -69 -159 -5 -40 -12 -79 -16 -89 -4 -12 1 -20 17 -26 18 -7 19 -10 7 -10
-32 -2 -19 -21 15 -22 l32 -1 -35 -8 c-19 -4 -54 -10 -76 -14 l-41 -6 3 93 c3
90 10 162 20 202 4 18 4 18 -6 3 -23 -36 -30 -194 -35 -737 -3 -311 -7 -567
-9 -569 -2 -2 -21 7 -43 20 -50 32 -111 53 -208 73 -29 6 -29 7 -11 21 11 8
44 14 75 15 100 1 91 -40 92 419 l1 405 -38 9 c-22 4 -49 13 -61 18 -27 13
-53 4 -60 -22 -5 -20 -14 -20 -433 -20 l-428 0 -16 25 c-22 33 -46 32 -80 -4
-23 -24 -26 -32 -17 -49 14 -26 15 -650 1 -686 -6 -17 -6 -27 1 -32 8 -4 7
-10 -2 -16 -11 -7 -11 -11 -1 -15 6 -2 10 -8 7 -12 -2 -5 38 -11 89 -15 94 -6
156 -21 156 -36 0 -9 -16 -13 -125 -31 -173 -29 -238 -78 -276 -209 -17 -58
-18 -88 -3 -94 18 -7 24 -46 8 -53 -10 -4 -14 -24 -14 -73 0 -105 -18 -131
-41 -62 -9 25 -13 89 -13 197 1 171 7 196 59 265 l26 35 -23 3 c-22 3 -48 27
-48 44 0 4 14 8 30 8 l30 0 0 228 0 227 -37 11 c-23 6 -166 10 -363 9 l-325
-1 -7 -39 c-4 -22 -7 -128 -7 -236 l-1 -196 83 5 c65 3 85 8 97 23 8 10 31 24
49 30 30 11 32 13 15 20 -16 6 -15 8 8 8 15 1 30 -4 34 -10 9 -15 167 -5 172
10 5 14 57 14 83 0 11 -5 17 -14 14 -19 -3 -5 1 -20 10 -34 9 -13 12 -26 8
-29 -23 -13 -94 -20 -248 -22 -184 -3 -256 -14 -307 -49 -48 -32 -59 -63 -65
-185 -5 -86 -9 -108 -19 -104 -8 3 -14 1 -14 -5 0 -5 10 -12 21 -15 17 -5 20
-11 15 -29 -3 -13 -6 -72 -7 -133 -1 -77 -3 -99 -9 -72 -4 20 -10 40 -13 44
-11 10 -8 -58 4 -102 6 -22 11 -55 10 -72 -1 -30 2 -33 29 -33 17 0 30 5 30
10 0 6 5 10 12 10 6 0 3 -9 -7 -20 -10 -11 -26 -20 -36 -20 -11 0 -24 -9 -31
-19 -6 -10 -18 -17 -25 -14 -14 6 -17 -17 -7 -54 11 -39 85 -47 431 -46 l311
1 9 -47 c6 -35 14 -49 34 -58 66 -32 371 -53 769 -53 311 0 517 11 612 34 69
16 68 18 68 -104 0 -113 8 -124 120 -157 142 -41 544 -66 935 -59 455 10 647
22 723 47 91 30 92 32 92 163 0 99 -3 121 -25 170 -30 69 -31 78 -3 152 21 58
22 69 22 599 2 979 -8 1299 -39 1412 -23 78 -94 135 -211 169 -49 14 -97 31
-108 36 -33 18 6 30 77 25 l62 -5 -2 500 c-1 395 -4 503 -15 515 -16 20 -111
63 -138 63 -10 0 -26 -7 -34 -16z m-953 -181 c-7 -2 -21 -2 -30 0 -10 3 -4 5
12 5 17 0 24 -2 18 -5z m44 1 c-3 -3 -12 -4 -19 -1 -8 3 -5 6 6 6 11 1 17 -2
13 -5z m900 -66 c-3 -8 -6 -5 -6 6 -1 11 2 17 5 13 3 -3 4 -12 1 -19z m-1087
-8 c0 -5 -2 -10 -4 -10 -3 0 -8 5 -11 10 -3 6 -1 10 4 10 6 0 11 -4 11 -10z
m515 -260 c-3 -5 -11 -10 -16 -10 -6 0 -7 5 -4 10 3 6 11 10 16 10 6 0 7 -4 4
-10z m2 -98 c13 -13 11 -17 -16 -28 -21 -9 -29 -18 -25 -28 4 -10 1 -16 -9
-16 -18 0 -11 44 9 61 8 6 15 28 15 48 2 32 2 33 6 7 3 -16 11 -36 20 -44z
m530 26 c-3 -8 -6 -5 -6 6 -1 11 2 17 5 13 3 -3 4 -12 1 -19z m-494 -95 c-7
-2 -21 -2 -30 0 -10 3 -4 5 12 5 17 0 24 -2 18 -5z m-93 -129 c0 -8 -5 -12
-10 -9 -6 4 -8 11 -5 16 9 14 15 11 15 -7z m110 6 c0 -5 -7 -10 -15 -10 -8 0
-15 5 -15 10 0 6 7 10 15 10 8 0 15 -4 15 -10z m390 -140 c0 -5 -4 -10 -10
-10 -5 0 -10 5 -10 10 0 6 5 10 10 10 6 0 10 -4 10 -10z m-787 -17 c4 -2 7
-11 7 -19 0 -23 -45 -16 -75 12 l-29 26 45 -7 c24 -4 47 -9 52 -12z m762 -3
c14 -16 15 -20 4 -20 -16 0 -39 19 -39 32 0 14 16 9 35 -12z m218 -201 c50
-26 117 -77 117 -90 0 -5 -10 -13 -22 -18 -18 -6 -32 0 -70 30 -26 20 -70 47
-97 60 -28 12 -48 26 -45 31 10 15 75 8 117 -13z m-750 -87 c-6 -4 -13 -28
-15 -52 -2 -25 -7 -43 -12 -40 -6 3 -9 24 -7 46 2 32 -2 43 -16 49 -15 7 -13
9 12 15 32 7 59 -5 38 -18z m118 -14 c5 -56 0 -90 -12 -83 -5 4 -9 28 -9 56 0
28 -5 49 -11 49 -5 0 -7 5 -4 10 15 24 33 8 36 -32z m119 21 c9 -16 8 -26 -6
-47 -19 -29 -20 -37 -4 -37 6 0 11 -4 13 -10 1 -5 -15 -11 -35 -13 -47 -4 -49
12 -8 52 17 16 30 33 30 38 0 16 -32 21 -40 7 -5 -7 -12 -10 -16 -6 -10 10 16
37 37 37 10 0 23 -9 29 -21z m140 1 c13 -24 -15 -100 -37 -100 -13 0 -13 3 -3
15 11 13 9 20 -9 38 -24 27 -26 38 -9 55 18 18 46 14 58 -8z m-330 -30 c0 -5
-4 -10 -10 -10 -5 0 -10 5 -10 10 0 6 5 10 10 10 6 0 10 -4 10 -10z m240 -65
c0 -8 -4 -15 -10 -15 -5 0 -10 7 -10 15 0 8 5 15 10 15 6 0 10 -7 10 -15z
m-240 -5 c0 -5 -7 -10 -15 -10 -8 0 -15 5 -15 10 0 6 7 10 15 10 8 0 15 -4 15
-10z m-698 -246 c3 -3 -2 -20 -11 -37 -14 -29 -16 -110 -17 -820 -1 -485 -5
-792 -11 -798 -16 -16 -32 13 -43 72 -5 30 -15 272 -20 539 -6 267 -14 606
-17 754 -5 253 -5 270 12 283 18 13 96 18 107 7z m-1249 -146 c9 -24 8 -216
-1 -222 -6 -3 -15 38 -22 97 -6 56 -14 110 -16 120 -6 20 31 25 39 5z m705
-286 l2 -292 -32 7 c-29 6 -32 5 -20 -10 11 -13 10 -17 -4 -25 -15 -8 -13 -11
13 -16 17 -4 47 -4 66 -1 45 9 54 -6 22 -42 -13 -15 -25 -22 -25 -16 0 19 -57
44 -84 37 -20 -5 -27 0 -42 28 -20 38 -55 90 -68 99 -4 4 -3 16 3 27 16 30 14
63 -8 118 -10 27 -26 71 -34 99 -13 45 -18 51 -52 59 -57 13 -81 -3 -88 -59
-4 -28 -17 -59 -32 -77 -14 -16 -22 -34 -19 -39 3 -6 0 -16 -6 -24 -14 -17 -5
-62 17 -87 15 -16 15 -18 0 -18 -20 0 -21 -16 -4 -53 13 -28 52 -47 96 -47 45
0 116 26 119 44 6 29 27 16 58 -38 28 -47 30 -56 20 -87 -16 -48 -53 -63 -156
-62 -290 4 -270 0 -283 52 -5 18 1 31 25 52 16 16 34 29 38 29 4 0 10 7 13 14
4 10 1 13 -8 10 -10 -4 -12 0 -8 15 4 17 1 21 -21 21 l-26 0 0 285 0 285 253
2 c138 2 257 3 262 2 6 0 11 -107 13 -292z m1411 197 c1 -15 -6 -33 -15 -40
-15 -12 -16 -10 -10 18 5 20 3 34 -5 38 -15 10 -30 -15 -26 -42 5 -30 -19 -30
-26 -1 -4 14 2 33 17 53 12 16 26 39 30 50 7 18 10 16 21 -15 8 -19 14 -47 14
-61z m-154 10 c43 -23 55 -36 55 -58 0 -10 -7 -8 -23 7 -30 28 -39 28 -35 0 2
-12 13 -28 26 -34 18 -9 20 -13 9 -17 -25 -9 -50 18 -67 72 -10 28 -14 51 -11
51 3 0 24 -10 46 -21z m280 -21 c-17 -43 -41 -68 -63 -68 -12 0 -9 7 12 29 15
16 24 31 19 34 -14 8 -53 -12 -53 -28 0 -8 -4 -15 -10 -15 -14 0 -12 37 2 47
14 9 101 40 106 38 1 -1 -4 -18 -13 -37z m63 -87 c49 -19 45 -28 -20 -55 -31
-13 -38 -13 -54 -1 -18 13 -16 14 19 15 25 0 37 5 37 14 0 21 -42 28 -62 9
-16 -15 -18 -15 -18 0 0 16 26 37 45 36 6 0 29 -8 53 -18z m-365 -5 c5 -12 -1
-13 -29 -9 -36 6 -45 -6 -19 -27 8 -6 23 -9 36 -5 15 5 20 3 17 -6 -8 -25 -48
-21 -95 10 -45 30 -45 31 -22 40 38 15 106 13 112 -3z m207 -15 c19 -16 32
-32 29 -35 -4 -4 -51 -5 -104 -4 l-99 3 33 33 c43 43 92 44 141 3z m-310 -36
c0 -11 -12 -15 -47 -15 -27 0 -54 -4 -61 -8 -9 -7 -12 -56 -10 -213 l3 -204
330 -5 c182 -3 340 -4 353 -2 l22 3 -2 212 -3 212 -42 3 c-57 4 -55 22 1 22
73 0 76 -10 76 -242 0 -185 -1 -199 -20 -218 -19 -19 -33 -20 -363 -20 -337 0
-344 0 -363 21 -17 19 -19 41 -22 224 l-3 203 27 21 c33 26 124 31 124 6z
m-1366 -3 c6 -10 -30 -9 -40 1 -4 4 2 7 14 7 11 0 23 -4 26 -8z m12 -77 c4
-11 8 -32 9 -47 2 -22 -2 -28 -17 -28 -14 0 -18 5 -14 18 4 11 -5 24 -27 40
l-32 22 28 0 c23 0 27 4 28 28 0 29 3 25 25 -33z m341 13 c-3 -7 -5 -2 -5 12
0 14 2 19 5 13 2 -7 2 -19 0 -25z m-427 -30 c0 -4 -9 -10 -20 -13 -15 -5 -19
-12 -15 -26 5 -14 2 -19 -10 -19 -10 0 -15 6 -12 13 2 6 10 29 17 49 12 33 15
35 26 20 8 -9 14 -20 14 -24z m1438 -31 c2 -35 -1 -49 -12 -53 -26 -10 -7 -24
23 -18 16 4 32 1 35 -5 5 -7 -9 -11 -43 -11 l-51 0 0 71 c0 67 1 70 23 67 19
-3 22 -10 25 -51z m112 -17 c0 -62 -2 -70 -19 -70 -22 0 -31 26 -31 93 0 44 2
47 25 47 24 0 25 -2 25 -70z m103 63 c-34 -4 -40 -12 -24 -28 5 -6 11 -30 13
-55 2 -40 0 -45 -20 -48 -21 -3 -22 0 -22 57 0 46 -3 61 -14 61 -8 0 -18 5
-21 10 -4 6 17 9 57 8 35 0 48 -3 31 -5z m151 1 c19 -7 21 -45 4 -63 -10 -11
-10 -14 0 -18 6 -3 12 -16 12 -29 0 -19 -5 -24 -25 -24 -15 0 -25 5 -24 13 3
17 -11 47 -22 47 -5 0 -9 -13 -9 -30 0 -23 -4 -30 -20 -30 -18 0 -20 7 -20 70
l0 70 44 0 c24 0 51 -3 60 -6z m76 -54 c0 -46 4 -62 16 -67 9 -3 20 0 24 7 12
19 0 93 -18 108 -13 10 -10 12 20 12 41 0 48 -11 48 -73 0 -61 -8 -69 -71 -65
l-54 3 -3 54 c-4 63 2 81 23 81 12 0 15 -13 15 -60z m-2930 20 c0 -5 -4 -10
-10 -10 -5 0 -10 5 -10 10 0 6 5 10 10 10 6 0 10 -4 10 -10z m74 -5 c4 -12 24
-15 90 -15 76 0 86 -2 97 -21 6 -12 8 -36 4 -56 -5 -30 -13 -38 -63 -60 -31
-13 -65 -32 -75 -40 -9 -9 -20 -13 -24 -10 -3 4 -1 7 5 7 7 0 12 11 12 25 0
29 -7 31 -32 8 -17 -15 -18 -15 -18 5 0 12 -8 22 -17 24 -10 2 -18 12 -18 23
0 18 -6 20 -45 16 -56 -4 -57 -5 -65 -41 -8 -36 -9 -36 -60 -7 -34 19 -40 28
-43 60 -5 56 10 67 84 67 59 0 65 -2 76 -25 7 -17 19 -25 36 -25 21 0 23 3 17
28 -3 15 -11 29 -17 31 -13 5 12 21 33 21 9 0 19 -7 23 -15z m294 -112 c-4
-23 -6 -25 -12 -10 -5 9 -5 34 0 55 7 34 8 35 12 10 2 -16 2 -40 0 -55z m-384
-15 c-7 -11 -34 -10 -34 1 0 6 9 9 19 8 11 0 17 -5 15 -9z m1026 8 c0 -3 -4
-8 -10 -11 -5 -3 -10 -1 -10 4 0 6 5 11 10 11 6 0 10 -2 10 -4z m1621 -16 c10
-6 19 -17 19 -25 0 -19 -34 -19 -50 0 -25 30 -40 17 -40 -33 0 -50 13 -74 36
-65 17 6 18 30 2 36 -20 7 6 30 28 25 23 -4 31 -43 14 -64 -13 -14 -75 -19
-104 -8 -20 8 -23 129 -3 137 22 9 78 7 98 -3z m154 -40 c6 -25 15 -57 18 -72
6 -24 4 -28 -13 -28 -11 0 -28 9 -37 20 -10 11 -20 20 -24 20 -4 0 -9 -9 -12
-20 -3 -12 -14 -20 -26 -20 -25 0 -25 -5 -5 81 l16 70 36 -3 c33 -3 37 -6 47
-48z m143 38 c16 -16 15 -38 -1 -38 -8 0 -22 9 -32 20 -24 26 -35 25 -35 -4 0
-24 16 -36 50 -36 27 0 44 -34 30 -60 -15 -27 -44 -27 -35 0 8 26 -11 50 -39
50 -24 0 -46 17 -46 36 0 37 80 60 108 32z m-2858 -84 c0 -8 -4 -12 -10 -9 -5
3 -10 10 -10 16 0 5 5 9 10 9 6 0 10 -7 10 -16z m2792 -21 c23 -21 23 -33 -1
-33 -22 0 -45 25 -36 40 9 14 15 13 37 -7z m-2103 -22 c22 -14 4 -33 -20 -21
-11 6 -17 15 -14 21 8 11 16 11 34 0z m-780 -155 c-1 -6 -1 -20 0 -31 1 -15 5
-12 17 14 17 41 28 37 12 -5 -10 -27 -15 -30 -52 -28 -41 2 -55 17 -43 48 6
15 68 17 66 2z m63 -21 c-6 -34 -12 -32 -12 6 0 16 4 28 9 25 4 -3 6 -17 3
-31z m42 8 c-2 -44 -3 -46 -18 -33 -12 9 -13 17 -4 36 15 32 24 30 22 -3z
m984 -23 c4 -36 -14 -56 -35 -38 -12 9 -9 47 4 71 10 18 28 -1 31 -33z m-76
18 c-7 -7 -12 -22 -12 -35 0 -13 -4 -23 -10 -23 -5 0 -9 16 -8 35 1 28 5 35
22 35 15 0 17 -3 8 -12z m153 -19 c7 -33 -11 -57 -29 -39 -4 4 -16 6 -25 2
-14 -5 -14 -4 1 11 9 9 20 26 23 37 9 29 22 24 30 -11z m-955 6 c0 -9 -6 -12
-15 -9 -8 4 -12 10 -9 15 8 14 24 10 24 -6z m1340 -40 c14 -7 34 -23 45 -35
l20 -22 -25 -20 c-33 -27 -119 -21 -153 9 -12 12 -39 30 -60 41 l-39 20 49 14
c53 16 124 12 163 -7z m-1578 -45 c-2 -16 -8 -30 -11 -30 -4 0 -8 14 -8 30 0
17 6 30 12 30 7 0 10 -11 7 -30z m58 5 c0 -33 14 -32 30 3 12 25 13 26 21 7
15 -39 11 -44 -44 -42 -42 1 -53 5 -53 19 0 9 4 14 8 12 5 -3 11 2 14 10 9 25
24 19 24 -9z m1060 -110 c0 -13 4 -14 20 -5 15 8 20 8 20 -3 0 -22 -10 -26
-36 -15 -17 8 -27 8 -37 0 -15 -13 -27 -6 -27 16 0 12 3 12 15 2 12 -10 16 -9
21 4 8 20 24 21 24 1z m-1044 -45 c8 0 14 -7 14 -15 0 -14 14 -19 70 -28 14
-3 4 -5 -22 -6 -38 -1 -49 3 -58 19 -13 25 -36 26 -52 1 -6 -10 -17 -17 -24
-14 -9 3 -3 15 19 34 17 16 33 25 35 19 2 -5 10 -10 18 -10z m989 0 c4 -6 -17
-10 -56 -10 -47 0 -65 -4 -76 -17 -13 -16 -13 -16 -3 4 8 17 21 23 58 26 26 2
52 4 59 5 6 1 15 -2 18 -8z m70 0 c4 -6 -7 -10 -25 -10 -18 0 -29 4 -25 10 3
6 15 10 25 10 10 0 22 -4 25 -10z m143 -6 c7 -2 12 -21 12 -49 0 -42 -2 -45
-27 -46 -169 -7 -241 -7 -271 0 -26 6 11 9 126 10 l163 1 -3 38 -3 37 -62 3
c-35 2 -63 7 -63 13 0 8 94 4 128 -7z m-1208 -34 c0 -5 -6 -10 -14 -10 -8 0
-18 5 -21 10 -3 6 3 10 14 10 12 0 21 -4 21 -10z m901 -18 c0 -12 4 -9 11 8
10 22 12 23 15 6 3 -10 0 -23 -5 -28 -16 -16 -42 -2 -42 22 0 25 20 17 21 -8z
m59 9 c0 -11 -4 -23 -10 -26 -6 -4 -10 5 -10 19 0 14 5 26 10 26 6 0 10 -9 10
-19z m90 -6 c0 -21 -4 -23 -40 -22 -34 2 -40 5 -40 23 0 18 6 22 40 22 36 1
40 -2 40 -23z m50 8 c1 -16 2 -16 16 2 15 20 15 20 30 1 12 -17 14 -18 14 -3
0 9 7 17 15 17 8 0 15 -7 15 -15 0 -8 0 -18 0 -22 0 -5 -27 -8 -60 -9 -57 -1
-60 1 -60 23 0 27 30 33 30 6z m-1010 -34 c0 -13 -8 -17 -37 -16 -21 0 -44 5
-50 10 -9 6 -13 6 -13 -2 0 -18 -113 -8 -118 10 -3 11 -2 11 6 1 8 -11 10 -11
15 0 4 11 28 14 101 14 84 0 96 -2 96 -17z m785 -9 c3 -5 1 -10 -4 -10 -6 0
-11 5 -11 10 0 6 2 10 4 10 3 0 8 -4 11 -10z m-765 -20 c0 -6 -41 -9 -107 -8
l-108 2 105 6 c58 3 106 7 108 8 1 1 2 -2 2 -8z m2270 -75 c0 -69 -3 -85 -15
-85 -12 0 -15 14 -15 70 0 56 -3 70 -15 70 -16 0 -20 12 -8 23 3 4 17 7 30 7
22 0 23 -3 23 -85z m164 53 c8 -22 5 -34 -17 -67 l-27 -41 25 0 c16 0 25 -6
25 -15 0 -12 -13 -15 -55 -15 -30 0 -55 5 -55 10 0 6 18 28 40 50 22 22 40 47
40 55 0 23 -31 31 -45 12 -14 -20 -35 -22 -35 -5 0 25 34 49 64 46 23 -2 33
-10 40 -30z m194 10 c2 -13 -3 -16 -24 -15 -34 3 -43 -19 -11 -27 32 -8 49
-46 33 -77 -14 -29 -66 -38 -86 -14 -17 20 -4 32 19 18 23 -14 44 -1 39 23 -3
14 -11 18 -32 16 -28 -3 -28 -3 -21 40 10 57 12 60 48 56 20 -2 33 -9 35 -20z
m122 -23 c0 -48 12 -57 32 -25 7 11 22 20 32 20 19 0 18 -1 -2 -23 -28 -30
-28 -35 5 -69 19 -20 22 -28 12 -28 -9 0 -26 11 -39 25 -13 14 -27 25 -32 25
-4 0 -8 -11 -8 -25 0 -14 -4 -25 -10 -25 -6 0 -10 35 -10 85 0 50 4 85 10 85
6 0 10 -20 10 -45z m230 -76 c0 -57 -3 -70 -19 -79 -22 -11 -61 -13 -85 -4
-30 11 -16 23 25 21 28 -1 43 3 47 12 3 10 -2 12 -22 7 -36 -9 -81 33 -70 67
12 39 24 47 75 45 l49 -1 0 -68z m-3176 -37 c-1 -7 -2 -21 -2 -32 -1 -11 -9
-20 -17 -20 -18 0 -19 11 -2 29 10 11 9 14 -1 18 -15 6 -4 25 11 20 7 -2 12
-9 11 -15z m64 -11 c5 -30 -13 -50 -30 -33 -9 9 -9 12 0 12 7 0 12 7 12 15 0
8 -5 15 -11 15 -5 0 -7 5 -4 11 11 16 30 5 33 -20z m45 17 c19 -21 17 -48 -4
-48 -14 0 -19 7 -19 30 0 33 5 37 23 18z m2587 -3 c0 -8 -7 -15 -15 -15 -8 0
-15 7 -15 15 0 8 7 15 15 15 8 0 15 -7 15 -15z m-2520 -36 c0 -16 -4 -29 -10
-29 -5 0 -13 -1 -17 -2 -8 -4 -15 42 -9 59 9 23 36 2 36 -28z m850 31 c0 -5
-6 -10 -12 -11 -10 0 -10 -2 0 -6 17 -7 15 -42 -4 -50 -8 -3 -20 -1 -27 6 -8
8 -5 11 14 12 16 1 19 3 7 6 -18 4 -24 33 -11 46 10 11 33 8 33 -3z m90 -5
c16 -19 5 -65 -15 -65 -23 0 -41 46 -25 65 16 19 24 19 40 0z m60 0 c0 -10 6
-12 18 -8 14 6 15 4 4 -9 -9 -11 -10 -18 -2 -23 5 -3 10 -11 10 -17 0 -7 -6
-6 -15 2 -10 9 -15 9 -15 1 0 -6 -4 -11 -10 -11 -5 0 -10 18 -10 40 0 22 5 40
10 40 6 0 10 -7 10 -15z m98 -42 c-2 -30 -8 -39 -24 -41 -17 -2 -23 4 -28 29
-7 39 -1 49 30 49 23 0 25 -3 22 -37z m-798 -102 c0 -5 -5 -22 -11 -38 -13
-35 8 -53 62 -53 65 0 54 -19 -13 -22 -69 -3 -68 -1 -83 -110 -3 -27 -10 -48
-15 -48 -11 0 -17 25 -24 103 -3 32 -8 62 -11 67 -5 9 21 77 37 98 12 14 58
16 58 3z m-152 -17 c22 -6 22 -8 6 -25 -21 -23 -37 -24 -55 -3 -10 13 -10 17
2 25 17 10 18 10 47 3z m1282 -24 c3 -3 13 -9 23 -13 23 -9 22 -24 -4 -32 -19
-6 -19 -8 -3 -20 16 -11 11 -13 -35 -20 -80 -11 -159 2 -167 27 -3 11 -1 25 4
30 8 8 13 3 18 -16 10 -40 23 -31 14 10 -9 40 -7 41 55 47 44 3 87 -2 95 -13z
m160 5 c7 -9 8 -15 2 -15 -5 0 -12 7 -16 15 -3 8 -4 15 -2 15 2 0 9 -7 16 -15z
m100 -55 c0 -5 -15 -10 -32 -10 -25 0 -29 3 -18 10 20 13 50 13 50 0z m57
-145 c-13 -45 -5 -54 60 -62 47 -5 52 -3 78 25 24 28 29 29 42 16 14 -13 13
-16 -2 -28 -18 -13 -17 -14 1 -24 17 -10 16 -12 -11 -13 -16 -1 -34 -3 -40 -4
-5 -2 -19 -3 -30 -4 -41 -3 -65 -34 -82 -105 -19 -83 -31 -76 -42 26 -5 42
-12 81 -15 87 -9 13 34 132 44 126 5 -3 3 -21 -3 -40z m1508 -45 c4 -6 -7 -10
-24 -10 -17 0 -31 5 -31 10 0 6 11 10 24 10 14 0 28 -4 31 -10z m10 -30 c-3
-5 3 -10 14 -10 12 0 21 -4 21 -10 0 -5 -22 -10 -50 -10 -55 0 -65 13 -22 28
36 14 44 14 37 2z m-75 -14 c0 -3 -4 -8 -10 -11 -5 -3 -10 -1 -10 4 0 6 5 11
10 11 6 0 10 -2 10 -4z"/>
<path d="M5084 2979 c-8 -14 18 -31 30 -19 9 9 0 30 -14 30 -5 0 -12 -5 -16
-11z"/>
<path d="M4985 2148 c4 -37 4 -38 20 -38 21 0 30 27 15 45 -19 22 -38 18 -35
-7z"/>
<path d="M2285 2030 c3 -5 11 -10 16 -10 6 0 7 5 4 10 -3 6 -11 10 -16 10 -6
0 -7 -4 -4 -10z"/>
<path d="M4930 1966 c0 -8 -3 -21 -6 -30 -4 -11 0 -16 13 -16 16 0 19 5 15 30
-4 30 -22 43 -22 16z"/>
<path d="M2150 1690 c0 -5 5 -10 11 -10 5 0 7 5 4 10 -3 6 -8 10 -11 10 -2 0
-4 -4 -4 -10z"/>
<path d="M5214 1256 c-8 -32 2 -46 31 -46 29 0 47 27 34 52 -15 28 -57 23 -65
-6z"/>
<path d="M2280 1170 c0 -5 5 -10 10 -10 6 0 10 5 10 10 0 6 -4 10 -10 10 -5 0
-10 -4 -10 -10z"/>
<path d="M3220 1160 c0 -11 5 -20 10 -20 6 0 10 9 10 20 0 11 -4 20 -10 20 -5
0 -10 -9 -10 -20z"/>
<path d="M3365 1150 c3 -5 10 -10 16 -10 5 0 9 5 9 10 0 6 -7 10 -16 10 -8 0
-12 -4 -9 -10z"/>
<path d="M1342 3823 c-33 -94 -36 -111 -24 -137 13 -28 38 -37 28 -9 -7 18 11
83 24 83 12 0 17 -40 8 -73 -5 -20 -4 -27 5 -24 23 7 38 51 32 92 -6 38 -40
105 -53 105 -4 0 -13 -17 -20 -37z"/>
<path d="M1587 3783 c-4 -7 -29 -22 -55 -33 -63 -28 -82 -48 -82 -84 0 -30 0
-30 16 -8 8 12 28 29 45 37 43 23 39 -4 -6 -44 l-36 -31 30 0 c36 0 76 44 91
101 12 44 10 83 -3 62z"/>
<path d="M1120 3773 c0 -5 4 -13 9 -18 5 -6 16 -34 26 -63 18 -57 53 -89 82
-77 17 6 17 7 0 16 -14 8 -47 68 -47 86 0 13 44 -23 59 -48 20 -33 37 -24 25
14 -13 45 -57 78 -121 92 -18 3 -33 3 -33 -2z"/>
<path d="M1049 3611 c-14 -5 -35 -14 -48 -20 -22 -12 -21 -13 21 -36 24 -13
58 -31 75 -41 26 -14 37 -15 58 -6 14 6 25 16 25 22 0 6 -4 8 -10 5 -12 -7
-80 23 -80 36 0 13 47 11 72 -2 28 -15 36 -2 11 22 -22 23 -84 33 -124 20z"/>
<path d="M1284 3591 c-35 -22 -66 -60 -58 -73 7 -11 261 -10 268 1 8 13 -31
59 -64 76 -40 21 -109 19 -146 -4z"/>
<path d="M1558 3600 c-31 -19 -21 -36 17 -32 19 2 43 1 52 -3 15 -6 14 -9 -10
-22 -17 -8 -40 -12 -55 -9 l-27 6 24 -20 c39 -33 83 -24 147 32 l37 33 -39 8
c-76 15 -129 17 -146 7z"/>
<path d="M875 3515 l-25 -24 0 -284 c0 -272 1 -285 21 -311 l20 -26 468 0
c441 0 469 1 484 18 15 16 17 54 17 320 0 300 0 301 -22 316 -29 21 -111 21
-128 1 -11 -13 -5 -15 47 -15 33 0 64 -5 71 -12 9 -9 12 -87 12 -289 0 -153
-3 -284 -6 -293 -5 -14 -57 -16 -474 -16 -417 0 -469 2 -474 16 -8 20 -8 558
0 578 5 13 22 16 81 16 66 0 74 2 63 15 -9 10 -31 15 -72 15 -49 0 -63 -4 -83
-25z"/>
<path d="M970 3325 l0 -95 65 0 c37 0 65 4 65 10 0 6 -22 10 -50 10 -51 0 -61
8 -35 30 10 9 15 32 15 76 l0 64 -30 0 -30 0 0 -95z"/>
<path d="M1120 3325 c0 -94 0 -95 24 -95 24 0 25 2 28 95 l3 95 -27 0 -28 0 0
-95z"/>
<path d="M1200 3410 c0 -5 11 -10 25 -10 25 0 25 -1 25 -85 l0 -85 30 0 30 0
0 62 c0 50 -4 66 -22 85 l-21 23 46 0 c26 0 47 5 47 10 0 6 -33 10 -80 10 -47
0 -80 -4 -80 -10z"/>
<path d="M1380 3325 c0 -95 0 -95 25 -95 25 0 25 0 25 95 0 95 0 95 -25 95
-25 0 -25 0 -25 -95z"/>
<path d="M1464 3399 c33 -26 32 -61 -2 -69 l-24 -5 26 -24 c14 -14 26 -35 26
-48 0 -19 5 -23 30 -23 26 0 30 3 30 29 0 16 -6 34 -14 40 -12 10 -12 16 2 41
13 23 14 33 4 54 -10 23 -18 26 -58 26 l-47 0 27 -21z"/>
<path d="M1587 3413 c-4 -3 -7 -43 -7 -89 0 -94 0 -94 91 -94 53 0 60 3 68 23
9 24 6 141 -4 157 -3 5 -25 10 -47 10 l-41 0 21 -23 c17 -18 22 -35 22 -78 0
-61 -11 -85 -34 -76 -13 5 -16 23 -16 92 0 82 -1 85 -23 85 -13 0 -27 -3 -30
-7z"/>
<path d="M4714 3345 c-25 -19 -15 -19 27 0 25 10 29 14 13 15 -11 0 -29 -7
-40 -15z"/>
<path d="M5088 3353 c7 -3 16 -2 19 1 4 3 -2 6 -13 5 -11 0 -14 -3 -6 -6z"/>
<path d="M4665 3320 c-3 -5 -2 -10 4 -10 5 0 13 5 16 10 3 6 2 10 -4 10 -5 0
-13 -4 -16 -10z"/>
<path d="M1082 3168 c-18 -18 -16 -152 2 -167 9 -7 41 -11 83 -9 l68 3 3 48 3
47 -35 0 c-39 0 -55 -14 -30 -28 25 -14 13 -47 -16 -47 -25 0 -25 1 -25 83 0
76 -1 82 -20 82 -12 0 -26 -5 -33 -12z"/>
<path d="M1171 3151 c14 -17 34 -30 47 -30 20 -1 23 3 20 27 -3 24 -7 27 -47
30 l-44 3 24 -30z"/>
<path d="M1296 3103 c-10 -43 -20 -86 -22 -95 -4 -14 1 -18 24 -18 25 0 30 5
36 31 l6 31 30 -22 c16 -12 30 -26 30 -31 0 -5 14 -9 31 -9 28 0 31 3 25 23
-3 12 -13 55 -22 95 l-16 72 -52 0 -52 0 -18 -77z m88 -5 c7 -36 6 -38 -20
-38 -23 0 -25 3 -20 26 4 15 10 40 13 57 5 26 7 28 13 11 4 -10 10 -36 14 -56z"/>
<path d="M1487 3174 c-12 -12 -8 -72 6 -81 6 -4 30 -12 52 -18 35 -9 40 -14
43 -42 4 -40 -6 -41 -42 -8 -32 30 -66 33 -66 6 0 -32 24 -42 92 -39 l63 3 0
45 c0 45 0 45 -42 55 -48 12 -52 15 -58 43 -6 34 16 38 42 8 28 -33 58 -31 58
4 0 24 -3 25 -70 28 -39 1 -74 0 -78 -4z"/>
<path d="M4740 3144 c-12 -32 -4 -50 16 -33 16 13 19 59 4 59 -6 0 -15 -12
-20 -26z"/>
<path d="M5080 3126 c0 -9 5 -16 10 -16 6 0 10 4 10 9 0 6 -4 13 -10 16 -5 3
-10 -1 -10 -9z"/>
<path d="M4135 3110 c-26 -10 -91 -74 -106 -103 -9 -19 -8 -19 13 4 12 14 47
43 76 64 63 47 67 56 17 35z"/>
<path d="M2680 1886 c0 -48 4 -85 9 -82 8 5 4 157 -5 165 -2 2 -4 -35 -4 -83z"/>
<path d="M2648 1759 l-33 -30 37 23 c21 13 38 26 38 31 0 13 -9 8 -42 -24z"/>
<path d="M1770 1449 c0 -5 5 -7 10 -4 6 3 10 8 10 11 0 2 -4 4 -10 4 -5 0 -10
-5 -10 -11z"/>
</g>
</svg>
